<svg width="85" height="87" viewBox="0 0 85 87" fill="none" xmlns="http://www.w3.org/2000/svg">
<path d="M20.7188 61.9875C23.7292 59.6313 27.0938 57.7734 30.8125 56.4141C34.5313 55.0547 38.4271 54.375 42.5 54.375C46.5729 54.375 50.4688 55.0547 54.1875 56.4141C57.9063 57.7734 61.2708 59.6313 64.2813 61.9875C66.3472 59.5104 67.9557 56.701 69.1068 53.5594C70.2578 50.4177 70.8333 47.0646 70.8333 43.5C70.8333 35.4646 68.0738 28.6224 62.5547 22.9734C57.0356 17.3245 50.3507 14.5 42.5 14.5C34.6493 14.5 27.9644 17.3245 22.4453 22.9734C16.9262 28.6224 14.1667 35.4646 14.1667 43.5C14.1667 47.0646 14.7422 50.4177 15.8932 53.5594C17.0443 56.701 18.6528 59.5104 20.7188 61.9875ZM42.5 47.125C39.0174 47.125 36.0807 45.9016 33.6901 43.4547C31.2995 41.0078 30.1042 38.0021 30.1042 34.4375C30.1042 30.8729 31.2995 27.8672 33.6901 25.4203C36.0807 22.9734 39.0174 21.75 42.5 21.75C45.9826 21.75 48.9193 22.9734 51.3099 25.4203C53.7005 27.8672 54.8958 30.8729 54.8958 34.4375C54.8958 38.0021 53.7005 41.0078 51.3099 43.4547C48.9193 45.9016 45.9826 47.125 42.5 47.125ZM42.5 79.75C37.6007 79.75 32.9965 78.7984 28.6875 76.8953C24.3785 74.9922 20.6302 72.4094 17.4427 69.1469C14.2552 65.8844 11.7318 62.0479 9.87241 57.6375C8.01303 53.2271 7.08334 48.5146 7.08334 43.5C7.08334 38.4854 8.01303 33.7729 9.87241 29.3625C11.7318 24.9521 14.2552 21.1156 17.4427 17.8531C20.6302 14.5906 24.3785 12.0078 28.6875 10.1047C32.9965 8.20156 37.6007 7.25 42.5 7.25C47.3993 7.25 52.0035 8.20156 56.3125 10.1047C60.6215 12.0078 64.3698 14.5906 67.5573 17.8531C70.7448 21.1156 73.2682 24.9521 75.1276 29.3625C76.987 33.7729 77.9167 38.4854 77.9167 43.5C77.9167 48.5146 76.987 53.2271 75.1276 57.6375C73.2682 62.0479 70.7448 65.8844 67.5573 69.1469C64.3698 72.4094 60.6215 74.9922 56.3125 76.8953C52.0035 78.7984 47.3993 79.75 42.5 79.75Z" fill="#1D1B20"/>
</svg>
